<svg id="undraw_horror_movie_3988" xmlns="http://www.w3.org/2000/svg" width="478.963" height="520.826" viewBox="0 0 478.963 520.826">
  <path id="Path_1" data-name="Path 1" d="M712.863,123.884v288.1a71.363,71.363,0,0,1-71.384,71.384h-288.1a71.133,71.133,0,0,1-44.407-15.487A71.353,71.353,0,0,1,282,411.979v-288.1q0-2.866.224-5.67a70.457,70.457,0,0,1,1.7-10.839A71.4,71.4,0,0,1,353.384,52.5h288.1a71.4,71.4,0,0,1,69.459,54.87,70.437,70.437,0,0,1,1.7,10.844Q712.863,121.018,712.863,123.884Z" transform="translate(-255.24 -52.5)" fill="#8f1ea3" opacity="0.1"/>
  <path id="Path_2" data-name="Path 2" d="M502.851,279.448H712.863v10.839H502.851v75.2H712.863v10.839H502.851V483.363H492.012V376.325H282V365.485H492.012v-75.2H282V279.448H492.012v-75.2H282V193.411H492.012v-75.2H282.224a70.457,70.457,0,0,1,1.7-10.839H492.012V52.5h10.839v54.874H710.939a70.445,70.445,0,0,1,1.7,10.839H502.851v75.2H712.863v10.839H502.851Z" transform="translate(-255.24 -52.5)" fill="#8f1ea3" opacity="0.1"/>
  <rect id="Rectangle_5" data-name="Rectangle 5" width="408.507" height="93.828" transform="translate(35.905 377.344)" fill="#46455b"/>
  <path id="Path_5" data-name="Path 5" d="M192.115,413.5,153.5,442.631l29.808,27.1,16.936-27.1L223.278,413.5Z" transform="translate(-153.5 -133.371)" fill="#46455b"/>
  <path id="Path_6" data-name="Path 6" d="M780.47,452.921l-5.42-6.1L740.5,427.177l31.841-.677,49.454,20.324L801.471,459.7Z" transform="translate(-342.832 -137.564)" fill="#46455b"/>
  <path id="Path_7" data-name="Path 7" d="M204.887,450.083,238.76,413.5v84l-23.034,18.969L201.5,496.827Z" transform="translate(-168.982 -133.371)" fill="#46455b"/>
  <path id="Path_8" data-name="Path 8" d="M781.147,469.5l-6.1-22.356-11.517-14.9L740.5,427.5v93.489h46.745Z" transform="translate(-342.832 -137.887)" fill="#46455b"/>
  <path id="Path_9" data-name="Path 9" d="M262.534,376.5H578.839a10.534,10.534,0,0,1,10.534,10.534v96.5H252v-96.5A10.534,10.534,0,0,1,262.534,376.5Z" transform="translate(-185.27 -121.437)" fill="#46455b"/>
  <path id="Path_10" data-name="Path 10" d="M222.5,551.953,245.534,523.5h327.89l34.55,28.453Z" transform="translate(-175.755 -168.851)" fill="#46455b"/>
  <path id="Path_11" data-name="Path 11" d="M222.5,551.953,245.534,523.5h327.89l34.55,28.453Z" transform="translate(-175.755 -168.851)" opacity="0.05"/>
  <rect id="Rectangle_6" data-name="Rectangle 6" width="46.745" height="161.912" transform="translate(0 309.26)" fill="#46455b"/>
  <rect id="Rectangle_7" data-name="Rectangle 7" width="46.745" height="161.912" transform="translate(0 309.26)" fill="#fff" opacity="0.05"/>
  <rect id="Rectangle_8" data-name="Rectangle 8" width="46.745" height="161.912" transform="translate(432.218 309.26)" fill="#46455b"/>
  <rect id="Rectangle_9" data-name="Rectangle 9" width="46.745" height="161.912" transform="translate(432.218 309.26)" fill="#fff" opacity="0.05"/>
  <ellipse id="Ellipse_11" data-name="Ellipse 11" cx="54.5" cy="71.5" rx="54.5" ry="71.5" transform="translate(139.5 136.031)" fill="#2f2e41"/>
  <rect id="Rectangle_10" data-name="Rectangle 10" width="60" height="84" transform="translate(157.5 177.031)" fill="#2f2e41"/>
  <rect id="Rectangle_11" data-name="Rectangle 11" width="60" height="84" transform="translate(157.5 177.031)" opacity="0.1"/>
  <path id="Path_12" data-name="Path 12" d="M473.936,374.779a17.668,17.668,0,0,1-15.785,6.327c-.271,4.214,2.588,7.913,5.291,11.158L484.6,417.649a1.186,1.186,0,0,0,2.1.176l32.315-30.655c-3.225,1.355-7.039-.793-8.807-3.814s-1.944-6.653-2.107-10.162q-.352-7.858-.677-15.7a4.521,4.521,0,0,0-1.03-3.238,4.417,4.417,0,0,0-2.3-.874c-5.1-.874-21-5.42-23.948-.054-1.355,2.446-.745,7.215-1.355,9.979C477.872,367.4,476.578,371.487,473.936,374.779Z" transform="translate(-312.051 -148.698)" fill="#fbbebe"/>
  <path id="Path_13" data-name="Path 13" d="M473.936,374.779a17.668,17.668,0,0,1-15.785,6.327c-.271,4.214,2.588,7.913,5.291,11.158L484.6,417.649a1.186,1.186,0,0,0,2.1.176l32.315-30.655c-3.225,1.355-7.039-.793-8.807-3.814s-1.944-6.653-2.107-10.162q-.352-7.858-.677-15.7a4.521,4.521,0,0,0-1.03-3.238,4.417,4.417,0,0,0-2.3-.874c-5.1-.874-21-5.42-23.948-.054-1.355,2.446-.745,7.215-1.355,9.979C477.872,367.4,476.578,371.487,473.936,374.779Z" transform="translate(-312.051 -148.698)" opacity="0.1"/>
  <circle id="Ellipse_12" data-name="Ellipse 12" cx="32" cy="32" r="32" transform="translate(153.5 157.031)" fill="#fbbebe"/>
  <path id="Path_14" data-name="Path 14" d="M459.875,408.308l-5.108-16.1c-2.032-6.449-4.918-13.759-11.354-15.839-4.065-1.3-8.448-.108-12.682-.467-8.238-.711-16.259-7.262-23.962-4.261-9.484,3.685-9.4,18.251-17.824,23.968,0,13.61,4.4,26.251,6.775,39.645s3.062,27.85-3.143,39.97c-2.629,5.135-6.388,9.606-9.193,14.647A45.492,45.492,0,0,0,378,517.156q53.939.677,107.892.325c-.332-4.661-2.412-9.254-2.75-13.915a9.626,9.626,0,0,1,.325-4.2c.793-2.032,2.811-3.245,4.539-4.566a23.407,23.407,0,0,0,5.779-6.49c2.4-3.99,3.536-8.59,4.647-13.116L511.9,420.32c1.606-6.537,3.164-13.671.373-19.8-3.062-6.727-10.406-10.223-17.187-13.17-4.065-1.782-8.739-3.584-12.872-1.944-3.387,1.355-5.514,4.6-7.655,7.54A74.97,74.97,0,0,1,459.875,408.308Z" transform="translate(-286.107 -155.183)" fill="#f86d70"/>
  <path id="Path_15" data-name="Path 15" d="M386.268,413.385c-1.057,3.956-.467,8.184-1.247,12.194-1.307,6.714-6.206,12.052-9.484,18.041a41.034,41.034,0,0,0-3.591,30.431c.826,2.988,2.3,6.185,5.2,7.283,2.073.793,4.39.3,6.605.495,2.927.257,5.968,1.707,8.671.556,3.34-1.423,4-5.765,4.37-9.376a109.845,109.845,0,0,1,5.372-24.585c2.71-7.967,6.429-15.873,6.375-24.294-.041-5.935-7.642-.474-12.6-3.99C390.34,416.2,388.1,406.55,386.268,413.385Z" transform="translate(-283.789 -168.132)" opacity="0.1"/>
  <path id="Path_16" data-name="Path 16" d="M384.268,410.106c-1.057,3.956-.467,8.184-1.247,12.194-1.307,6.714-6.206,12.052-9.484,18.041a41.034,41.034,0,0,0-3.59,30.431c.826,2.988,2.3,6.185,5.2,7.283,2.073.793,4.39.3,6.605.495,2.927.257,5.968,1.707,8.671.556,3.34-1.423,4-5.765,4.37-9.376a109.842,109.842,0,0,1,5.372-24.585c2.71-7.967,6.429-15.873,6.375-24.294-.041-5.935-2.649-12.492-7.608-16.008C393.333,400.9,386.1,403.27,384.268,410.106Z" transform="translate(-283.144 -165.53)" fill="#f86d70"/>
  <path id="Path_17" data-name="Path 17" d="M436.505,349.823c4.065-2.276,8.069-4.742,12.255-6.856,6.544-3.272,13.9-5.826,19.05-10.839a2.148,2.148,0,0,1,3.536.928,200.14,200.14,0,0,0,7.852,21.218c2.6,5.962,5.5,11.815,7.452,18.02,1.355,4.315,2.2,8.807,3.889,12.96,2.2,5.42,5.718,10.243,9.207,14.972a19.056,19.056,0,0,0,4.4,4.742c2.52,1.714,6.28,2.811,6.544,5.846-3.272,2.364-7.723,1.585-11.754,1.551a49.549,49.549,0,0,0-12.113,1.782,72.974,72.974,0,0,0-13.549,4.525,95.867,95.867,0,0,0-12.059,7.242l-36.02,24.165c-2.649-3.028-2.547-7.452-3.116-11.463a59.616,59.616,0,0,0-2.087-8.516L416.4,418.009c-1.707-5.745-3.387-11.483-5.311-17.167-1.585-4.742-3.347-9.532-6.449-13.448-3.74-4.742-9.119-7.818-13.786-11.632-1.653-1.355-3.286-2.9-3.9-4.945a4.837,4.837,0,0,1,.542-4.011c.989-1.429,2.4-1.219,3.977-1.47q5.752-.915,11.408-2.31a138.2,138.2,0,0,0,21.862-7.411Q430.76,353.013,436.505,349.823Z" transform="translate(-289.022 -142.5)" fill="#bbbdc8"/>
  <path id="Path_18" data-name="Path 18" d="M441.717,358.342c3.57-1.978,7.039-4.146,10.69-5.975,5.718-2.859,12.126-5.081,16.618-9.437a1.87,1.87,0,0,1,3.089.806,174.1,174.1,0,0,0,6.849,18.508c2.269,5.2,4.8,10.311,6.483,15.724,1.165,3.76,1.917,7.655,3.387,11.307,1.917,4.742,4.993,8.936,8.028,13.061a16.782,16.782,0,0,0,3.834,4.133c2.209,1.5,5.487,2.452,5.711,5.108-2.852,2.032-6.734,1.355-10.25,1.355A42.364,42.364,0,0,0,485.6,414.49a63.135,63.135,0,0,0-11.808,3.95,80.856,80.856,0,0,0-10.521,6.341L431.84,445.829c-2.31-2.642-2.215-6.524-2.71-10.006a52.044,52.044,0,0,0-1.816-7.452l-3.137-10.548c-1.49-5.013-2.981-10.02-4.634-14.979-1.355-4.139-2.913-8.312-5.623-11.734-3.265-4.126-7.953-6.815-12.032-10.162a9.342,9.342,0,0,1-3.387-4.309,4.207,4.207,0,0,1,.474-3.5c.86-1.253,2.1-1.07,3.469-1.287q5.02-.793,9.952-2.032a119.7,119.7,0,0,0,19.07-6.463Q436.717,361.1,441.717,358.342Z" transform="translate(-292.757 -146.007)" opacity="0.1"/>
  <circle id="Ellipse_13" data-name="Ellipse 13" cx="2.71" cy="2.71" r="2.71" transform="translate(133.1 234.495)" fill="#bbbdc8"/>
  <circle id="Ellipse_14" data-name="Ellipse 14" cx="2.71" cy="2.71" r="2.71" transform="translate(161.994 221.115)" fill="#bbbdc8"/>
  <circle id="Ellipse_15" data-name="Ellipse 15" cx="2.71" cy="2.71" r="2.71" transform="translate(146.764 264.005)" fill="#bbbdc8"/>
  <circle id="Ellipse_16" data-name="Ellipse 16" cx="2.71" cy="2.71" r="2.71" transform="translate(175.658 250.625)" fill="#bbbdc8"/>
  <path id="Path_19" data-name="Path 19" d="M393.928,463.06c2.71-.779,5.562-1.633,7.554-3.631,1.545-1.558,2.4-3.651,3.489-5.562,2.161-3.814,5.582-7.195,9.884-8.035s9.356,1.646,10.277,5.935c.6,2.791-.569,5.63-1.727,8.245-1.734,3.916-3.692,8.021-7.269,10.385-3.13,2.066-7.12,2.52-10.2,4.668-2.71,1.9-4.417,4.9-6.775,7.235a17.905,17.905,0,0,1-11.476,5.115,3.882,3.882,0,0,1-1.931-.264,4.261,4.261,0,0,1-1.463-1.443c-1.992-2.71-4.011-5.5-5.067-8.705C375.549,465.831,385.961,465.344,393.928,463.06Z" transform="translate(-286.354 -179.314)" fill="#fbbebe"/>
  <path id="Path_20" data-name="Path 20" d="M497.914,463.226c-.915-5.46-1.036-11.415-4.41-15.805-2.825-3.665-7.52-5.521-12.14-5.833-1.355-.095-2.947.041-3.733,1.152a4.133,4.133,0,0,0-.508,2.588,31.251,31.251,0,0,0,7.357,18.887c1.687,1.978,3.645,3.78,4.823,6.1,1.03,2,1.409,4.281,2.364,6.314,1.247,2.649,3.387,4.742,5.027,7.181a20.656,20.656,0,0,1,3.455,11.808c1.789-2.92,1.572-6.571,1.741-9.992.224-4.817,3.6-7.452,1.409-11.381S498.707,468,497.914,463.226Z" transform="translate(-318.164 -177.989)" fill="#fbbebe"/>
  <path id="Path_21" data-name="Path 21" d="M525.378,460.62c-1.714,4.471-2.595,9.254-4.614,13.6a7.587,7.587,0,0,1-2.629,3.387c-2.168,1.355-5.034.515-7.188-.833s-4.065-3.2-6.415-4.1a24.442,24.442,0,0,1-19.822,21c6.1,5.6,12.519,11.828,13.895,19.985a11.989,11.989,0,0,0,1.145,4.383c1.287,2.066,4,2.744,6.443,2.71,6.2-.047,11.883-3.32,17.058-6.775a15.914,15.914,0,0,0,4.681-4.119,17.074,17.074,0,0,0,2.107-6.036q4.492-21.347,8.976-42.714c.813-3.868.677-11.469-5.325-10.7C529.619,451,526.638,457.348,525.378,460.62Z" transform="translate(-320.623 -180.824)" opacity="0.1"/>
  <path id="Path_22" data-name="Path 22" d="M527.378,460.62c-1.714,4.471-2.595,9.254-4.614,13.6a7.587,7.587,0,0,1-2.629,3.387c-2.168,1.355-5.034.515-7.188-.833s-4.065-3.2-6.416-4.1a24.442,24.442,0,0,1-19.822,21c6.1,5.6,12.519,11.828,13.895,19.985a11.989,11.989,0,0,0,1.145,4.383c1.287,2.066,4,2.744,6.443,2.71,6.2-.047,11.883-3.32,17.058-6.775a15.914,15.914,0,0,0,4.681-4.119,17.074,17.074,0,0,0,2.107-6.036q4.492-21.347,8.976-42.714c.813-3.868.677-11.469-5.325-10.7C531.619,451,528.638,457.348,527.378,460.62Z" transform="translate(-321.268 -180.824)" fill="#f86d70"/>
  <path id="Path_23" data-name="Path 23" d="M391.832,493.867c-.244,1.24-1.47,1.992-2.581,2.588-2.148,1.158-4.485,2.358-6.9,2.032s-4.444-2.114-6.029-4.011a15.462,15.462,0,0,1-2.032-2.954c-2.446-4.83-2.71-25.384,7.4-18.678,4.173,2.778,1.822,7.52,2.344,11.6a11.869,11.869,0,0,0,2.771,6.571C387.1,491.374,391.676,494.667,391.832,493.867Z" transform="translate(-284.55 -187.65)" fill="#f86d70"/>
  <ellipse id="Ellipse_17" data-name="Ellipse 17" cx="30" cy="14.5" rx="30" ry="14.5" transform="translate(163.5 153.031)" fill="#2f2e41"/>
  <path id="Path_24" data-name="Path 24" d="M515.515,306.952c-16.313,0-29.585-6.1-30.12-13.752a7.682,7.682,0,0,0-1.355,4.268c0,7.859,13.495,14.227,30.147,14.227s30.147-6.368,30.147-14.227v-.474C540.438,302.766,529.016,306.952,515.515,306.952Z" transform="translate(-320.407 -130.136)" opacity="0.1"/>
  <ellipse id="Ellipse_18" data-name="Ellipse 18" cx="74.5" cy="68" rx="74.5" ry="68" transform="translate(251.5 142.031)" fill="#2f2e41"/>
  <path id="Path_25" data-name="Path 25" d="M688.52,408.6c-37.741,0-68.931-25.513-73.843-58.6a62.771,62.771,0,0,0-.677,9.146c0,37.416,33.365,67.746,74.52,67.746s74.52-30.33,74.52-67.746a62.788,62.788,0,0,0-.677-9.146C757.452,383.087,726.262,408.6,688.52,408.6Z" transform="translate(-362.324 -148.456)" opacity="0.1"/>
  <ellipse id="Ellipse_19" data-name="Ellipse 19" cx="36" cy="48.5" rx="36" ry="48.5" transform="translate(288.5 164.031)" fill="#2f2e41"/>
  <ellipse id="Ellipse_20" data-name="Ellipse 20" cx="36" cy="48.5" rx="36" ry="48.5" transform="translate(288.5 164.031)" opacity="0.1"/>
  <path id="Path_26" data-name="Path 26" d="M693.76,389.388c-1.355,3.347-4.065,6.9-8.13,7.161,5.42,4.451,10.907,8.949,17.384,12.194s14.145,5.149,21.516,3.983c5.2-.82,9.932-3.1,14.349-5.6,7.52-4.254,14.9-9.843,16.808-17.417a122.876,122.876,0,0,1-16.936-.318,23.254,23.254,0,0,1-8.441-1.91,13.163,13.163,0,0,1-6.483-7.926,27.557,27.557,0,0,1-.806-9.877c.1-1.931.176-4.065-1.307-5.542s-3.936-1.673-6.165-1.721a84.716,84.716,0,0,0-13.407.793,46.067,46.067,0,0,0-6.9,1.253c-2.94.894-2.662.549-1.951,3.008C695.494,375,696.842,381.773,693.76,389.388Z" transform="translate(-385.428 -152.454)" fill="#a0616a"/>
  <path id="Path_27" data-name="Path 27" d="M693.76,389.388c-1.355,3.347-4.065,6.9-8.13,7.161,5.42,4.451,10.907,8.949,17.384,12.194s14.145,5.149,21.516,3.983c5.2-.82,9.932-3.1,14.349-5.6,7.52-4.254,14.9-9.843,16.808-17.417a122.876,122.876,0,0,1-16.936-.318,23.254,23.254,0,0,1-8.441-1.91,13.163,13.163,0,0,1-6.483-7.926,27.557,27.557,0,0,1-.806-9.877c.1-1.931.176-4.065-1.307-5.542s-3.936-1.673-6.165-1.721a84.716,84.716,0,0,0-13.407.793,46.067,46.067,0,0,0-6.9,1.253c-2.94.894-2.662.549-1.951,3.008C695.494,375,696.842,381.773,693.76,389.388Z" transform="translate(-385.428 -152.454)" opacity="0.1"/>
  <circle id="Ellipse_21" data-name="Ellipse 21" cx="31.841" cy="31.841" r="31.841" transform="translate(291.984 166.316)" fill="#a0616a"/>
  <path id="Path_28" data-name="Path 28" d="M673.432,401.711c-2.08-2.493-4.221-5.04-6.991-6.734-4.539-2.784-10.162-2.96-15.48-3.049-5.765-.1-12.032-.047-16.591,3.482a26.3,26.3,0,0,0-5.074,5.914L609.981,429.1c-.752,1.084-1.545,2.31-1.355,3.618a5.312,5.312,0,0,0,1.355,2.5l21.245,26.529a12.6,12.6,0,0,1,2.872,5,10.751,10.751,0,0,1-.745,5.731c-2.568,7.31-7.452,14.227-7,21.929.318,5.027,2.947,9.647,6.165,13.549,7.384,8.9,18.014,14.681,29.131,17.837s22.79,3.848,34.354,3.922c21.8.142,44.712-2.236,62.719-14.531l-14.152-13.332c-2.8-2.642-5.731-5.487-6.7-9.213-.677-2.507-.352-5.149-.047-7.716a68.7,68.7,0,0,1,2.656-13.895c4.22-12.458,15.067-21.326,22.3-32.308a7.714,7.714,0,0,0,1.687-4.559,8.158,8.158,0,0,0-1.606-3.794c-3.306-5.128-6.734-10.23-9.132-15.839-1.788-4.173-3-8.61-5.216-12.574s-5.731-7.527-10.162-8.36c-5.7-1.07-11.266,2.5-17.058,2.744-4.241.183-8.665-1.409-12.628.1-4.7,1.8-6.775,7.093-9.41,11.395-1.944,3.2-7.743,11.971-12.289,9.816-2.473-1.179-4.742-5.42-6.517-7.5Z" transform="translate(-360.582 -161.972)" fill="#f98a8d"/>
  <path id="Path_29" data-name="Path 29" d="M736.484,437.835a5.46,5.46,0,0,0-3.536-.637,2.771,2.771,0,0,0-2.242,2.534l-1.958-.115a2.186,2.186,0,0,0-.677.034,1.092,1.092,0,0,0,.461,2.134,6.531,6.531,0,0,0-2.5,1.761,3.5,3.5,0,0,0,.949,4.837,3.794,3.794,0,0,0,4.918-1,1.782,1.782,0,0,0,.948,2.093c3.672,1.985,5.542-.711,6.043-3.834C739.458,442.211,740.19,439.664,736.484,437.835Z" transform="translate(-398.27 -176.56)" fill="#ffe9b3"/>
  <path id="Path_30" data-name="Path 30" d="M736.484,437.835a5.46,5.46,0,0,0-3.536-.637,2.771,2.771,0,0,0-2.242,2.534l-1.958-.115a2.186,2.186,0,0,0-.677.034,1.092,1.092,0,0,0,.461,2.134,6.531,6.531,0,0,0-2.5,1.761,3.5,3.5,0,0,0,.949,4.837,3.794,3.794,0,0,0,4.918-1,1.782,1.782,0,0,0,.948,2.093c3.672,1.985,5.542-.711,6.043-3.834C739.458,442.211,740.19,439.664,736.484,437.835Z" transform="translate(-398.27 -176.56)" opacity="0.15"/>
  <path id="Path_31" data-name="Path 31" d="M751.268,434.436a5.419,5.419,0,0,0-3.536-.63,2.75,2.75,0,0,0-2.236,2.527l-1.958-.115a2.237,2.237,0,0,0-.677.034,1.125,1.125,0,0,0-.766,1.294,1.111,1.111,0,0,0,1.267.806,6.578,6.578,0,0,0-2.5,1.761,3.509,3.509,0,0,0,.948,4.837,3.8,3.8,0,0,0,4.925-1,1.775,1.775,0,0,0,.942,2.087c3.679,1.992,5.542-.677,6.05-3.828C754.249,438.813,754.994,436.266,751.268,434.436Z" transform="translate(-403.054 -175.465)" fill="#ffe9b3"/>
  <path id="Path_32" data-name="Path 32" d="M763.306,436.157a5.42,5.42,0,0,0-3.53-.63,2.751,2.751,0,0,0-2.242,2.527l-1.958-.115a2.181,2.181,0,0,0-.677.034,1.125,1.125,0,0,0-.766,1.294,1.111,1.111,0,0,0,1.267.806,6.477,6.477,0,0,0-2.5,1.761,3.5,3.5,0,0,0,.948,4.837,3.787,3.787,0,0,0,4.918-1,1.775,1.775,0,0,0,.948,2.087c3.672,1.992,5.535-.711,6.043-3.828C766.287,440.567,767.005,437.986,763.306,436.157Z" transform="translate(-406.937 -176.02)" fill="#ffe9b3"/>
  <path id="Path_33" data-name="Path 33" d="M763.306,436.157a5.42,5.42,0,0,0-3.53-.63,2.751,2.751,0,0,0-2.242,2.527l-1.958-.115a2.181,2.181,0,0,0-.677.034,1.125,1.125,0,0,0-.766,1.294,1.111,1.111,0,0,0,1.267.806,6.477,6.477,0,0,0-2.5,1.761,3.5,3.5,0,0,0,.948,4.837,3.787,3.787,0,0,0,4.918-1,1.775,1.775,0,0,0,.948,2.087c3.672,1.992,5.535-.711,6.043-3.828C766.287,440.567,767.005,437.986,763.306,436.157Z" transform="translate(-406.937 -176.02)" opacity="0.15"/>
  <path id="Path_34" data-name="Path 34" d="M769.294,442.666v72.772a1.755,1.755,0,0,1-1.748,1.748h-56.8A1.755,1.755,0,0,1,709,515.439V442.666a1.748,1.748,0,0,1,2.446-1.606q2.168.935,4.329,1.728,3.049,1.118,6.1,1.944t6.1,1.355c2.032.352,4.065.623,6.1.786s4.065.23,6.1.19,4.065-.156,6.1-.379,4.065-.556,6.1-.982,4.065-.928,6.1-1.545c1.578-.481,3.164-1.016,4.742-1.612,1.219-.454,2.432-.948,3.651-1.477a1.748,1.748,0,0,1,2.446,1.6Z" transform="translate(-392.966 -177.78)" fill="#bbbdc8"/>
  <path id="Path_35" data-name="Path 35" d="M725.1,445.624v72.488H719V443.68Q722.049,444.8,725.1,445.624Z" transform="translate(-396.191 -178.672)" fill="#fff"/>
  <path id="Path_36" data-name="Path 36" d="M743.1,449.313v70.32H737V448.5A55.293,55.293,0,0,0,743.1,449.313Z" transform="translate(-401.997 -180.227)" fill="#fff"/>
  <path id="Path_37" data-name="Path 37" d="M761.1,449.42v70.51H755V449.813Q758.049,449.759,761.1,449.42Z" transform="translate(-407.803 -180.523)" fill="#fff"/>
  <path id="Path_38" data-name="Path 38" d="M779.1,445.69v73.037H773V447.255Q776.049,446.618,779.1,445.69Z" transform="translate(-413.609 -179.32)" fill="#fff"/>
  <path id="Path_39" data-name="Path 39" d="M795.1,442.666v72.772a1.755,1.755,0,0,1-1.748,1.748H789V442.538c1.219-.454,2.432-.948,3.651-1.477a1.748,1.748,0,0,1,2.446,1.606Z" transform="translate(-418.769 -177.78)" opacity="0.1"/>
  <path id="Path_40" data-name="Path 40" d="M727.177,432.717a5.42,5.42,0,0,0-3.53-.63,2.75,2.75,0,0,0-2.242,2.527l-1.958-.115a2.181,2.181,0,0,0-.677.034,1.125,1.125,0,0,0-.766,1.294,1.111,1.111,0,0,0,1.267.806,6.476,6.476,0,0,0-2.5,1.761,3.5,3.5,0,0,0,.949,4.837,3.794,3.794,0,0,0,4.918-1,1.775,1.775,0,0,0,.948,2.087c3.672,1.985,5.535-.711,6.043-3.828C730.157,437.093,730.889,434.546,727.177,432.717Z" transform="translate(-395.283 -174.91)" fill="#ffe9b3"/>
  <path id="Path_41" data-name="Path 41" d="M742.177,415.717a5.42,5.42,0,0,0-3.53-.63,2.751,2.751,0,0,0-2.242,2.527l-1.958-.115a2.182,2.182,0,0,0-.677.034,1.125,1.125,0,0,0-.766,1.294,1.111,1.111,0,0,0,1.267.806,6.477,6.477,0,0,0-2.5,1.761,3.5,3.5,0,0,0,.949,4.837,3.794,3.794,0,0,0,4.918-1,1.775,1.775,0,0,0,.948,2.087c3.672,1.985,5.535-.711,6.043-3.828C745.157,420.093,745.889,417.546,742.177,415.717Z" transform="translate(-400.121 -169.427)" fill="#ffe9b3"/>
  <path id="Path_42" data-name="Path 42" d="M751.95,433.259a5.42,5.42,0,0,0,1.307-3.347,2.75,2.75,0,0,0-2.032-2.71l.495-1.9a2.031,2.031,0,0,0,.1-.677,1.078,1.078,0,0,0-2.154.081,6.483,6.483,0,0,0-1.24-2.791,3.509,3.509,0,0,0-4.932,0,3.794,3.794,0,0,0,0,5.02,1.782,1.782,0,0,0-2.236.528c-2.662,3.211-.379,5.569,2.581,6.673C747.079,435.332,749.436,436.551,751.95,433.259Z" transform="translate(-402.991 -171.326)" fill="#ffe9b3"/>
  <path id="Path_43" data-name="Path 43" d="M764.95,433.259a5.42,5.42,0,0,0,1.307-3.347,2.75,2.75,0,0,0-2.032-2.71l.495-1.9a2.031,2.031,0,0,0,.1-.677,1.078,1.078,0,1,0-2.154.081,6.483,6.483,0,0,0-1.24-2.791,3.509,3.509,0,0,0-4.932,0,3.794,3.794,0,0,0,0,5.02,1.782,1.782,0,0,0-2.236.528c-2.662,3.211-.379,5.569,2.581,6.673C760.079,435.332,762.436,436.551,764.95,433.259Z" transform="translate(-407.184 -171.326)" fill="#ffe9b3"/>
  <path id="Path_44" data-name="Path 44" d="M772.918,442.418a5.42,5.42,0,0,0,.677-3.53,2.757,2.757,0,0,0-2.507-2.269l.142-1.951a2.237,2.237,0,0,0,0-.677,1.077,1.077,0,0,0-2.1.481,6.592,6.592,0,0,0-1.734-2.52,3.509,3.509,0,0,0-4.851.894,3.794,3.794,0,0,0,.948,4.932,1.782,1.782,0,0,0-2.1.928c-2.032,3.651.677,5.548,3.767,6.1C768.515,445.337,771.062,446.1,772.918,442.418Z" transform="translate(-409.638 -174.693)" fill="#ffe9b3"/>
  <path id="Path_45" data-name="Path 45" d="M732.918,426.418a5.42,5.42,0,0,0,.677-3.53,2.757,2.757,0,0,0-2.507-2.269l.142-1.951a2.235,2.235,0,0,0,0-.677,1.077,1.077,0,0,0-2.1.481,6.591,6.591,0,0,0-1.734-2.52,3.509,3.509,0,0,0-4.851.894,3.794,3.794,0,0,0,.948,4.932,1.782,1.782,0,0,0-2.1.928c-2.032,3.652.677,5.548,3.767,6.1C728.515,429.337,731.062,430.1,732.918,426.418Z" transform="translate(-396.737 -169.532)" fill="#ffe9b3"/>
  <path id="Path_46" data-name="Path 46" d="M737.484,425.835a5.46,5.46,0,0,0-3.536-.637,2.771,2.771,0,0,0-2.242,2.534l-1.958-.115a2.188,2.188,0,0,0-.677.034,1.092,1.092,0,1,0,.461,2.134,6.531,6.531,0,0,0-2.5,1.761,3.5,3.5,0,0,0,.948,4.837,3.794,3.794,0,0,0,4.918-1,1.782,1.782,0,0,0,.948,2.093c3.672,1.985,5.542-.711,6.043-3.834C740.458,430.211,741.19,427.664,737.484,425.835Z" transform="translate(-398.592 -172.689)" fill="#ffe9b3"/>
  <path id="Path_47" data-name="Path 47" d="M737.484,425.835a5.46,5.46,0,0,0-3.536-.637,2.771,2.771,0,0,0-2.242,2.534l-1.958-.115a2.188,2.188,0,0,0-.677.034,1.092,1.092,0,1,0,.461,2.134,6.531,6.531,0,0,0-2.5,1.761,3.5,3.5,0,0,0,.948,4.837,3.794,3.794,0,0,0,4.918-1,1.782,1.782,0,0,0,.948,2.093c3.672,1.985,5.542-.711,6.043-3.834C740.458,430.211,741.19,427.664,737.484,425.835Z" transform="translate(-398.592 -172.689)" opacity="0.15"/>
  <path id="Path_48" data-name="Path 48" d="M780.518,429.276a5.42,5.42,0,0,0-3.536-.63,2.757,2.757,0,0,0-2.242,2.527l-1.951-.115a2.222,2.222,0,0,0-.677.034,1.125,1.125,0,0,0-.766,1.294,1.111,1.111,0,0,0,1.267.806,6.579,6.579,0,0,0-2.5,1.761,3.509,3.509,0,0,0,.948,4.837,3.794,3.794,0,0,0,4.918-1,1.775,1.775,0,0,0,.948,2.086c3.672,1.985,5.542-.711,6.043-3.834C783.492,433.653,784.223,431.106,780.518,429.276Z" transform="translate(-412.489 -173.8)" fill="#ffe9b3"/>
  <path id="Path_49" data-name="Path 49" d="M780.518,429.276a5.42,5.42,0,0,0-3.536-.63,2.757,2.757,0,0,0-2.242,2.527l-1.951-.115a2.222,2.222,0,0,0-.677.034,1.125,1.125,0,0,0-.766,1.294,1.111,1.111,0,0,0,1.267.806,6.579,6.579,0,0,0-2.5,1.761,3.509,3.509,0,0,0,.948,4.837,3.794,3.794,0,0,0,4.918-1,1.775,1.775,0,0,0,.948,2.086c3.672,1.985,5.542-.711,6.043-3.834C783.492,433.653,784.223,431.106,780.518,429.276Z" transform="translate(-412.489 -173.8)" opacity="0.15"/>
  <path id="Path_50" data-name="Path 50" d="M754.518,412.276a5.42,5.42,0,0,0-3.536-.63,2.757,2.757,0,0,0-2.242,2.527l-1.951-.115a2.222,2.222,0,0,0-.677.034,1.125,1.125,0,0,0-.766,1.294,1.111,1.111,0,0,0,1.267.806,6.579,6.579,0,0,0-2.5,1.761,3.509,3.509,0,0,0,.948,4.837,3.794,3.794,0,0,0,4.918-1,1.775,1.775,0,0,0,.949,2.086c3.672,1.985,5.542-.711,6.043-3.834C757.492,416.653,758.223,414.106,754.518,412.276Z" transform="translate(-404.103 -168.317)" fill="#ffe9b3"/>
  <path id="Path_51" data-name="Path 51" d="M754.518,412.276a5.42,5.42,0,0,0-3.536-.63,2.757,2.757,0,0,0-2.242,2.527l-1.951-.115a2.222,2.222,0,0,0-.677.034,1.125,1.125,0,0,0-.766,1.294,1.111,1.111,0,0,0,1.267.806,6.579,6.579,0,0,0-2.5,1.761,3.509,3.509,0,0,0,.948,4.837,3.794,3.794,0,0,0,4.918-1,1.775,1.775,0,0,0,.949,2.086c3.672,1.985,5.542-.711,6.043-3.834C757.492,416.653,758.223,414.106,754.518,412.276Z" transform="translate(-404.103 -168.317)" opacity="0.15"/>
  <path id="Path_52" data-name="Path 52" d="M734.518,406.276a5.419,5.419,0,0,0-3.536-.63,2.757,2.757,0,0,0-2.242,2.527l-1.951-.115a2.223,2.223,0,0,0-.677.034,1.125,1.125,0,0,0-.766,1.294,1.111,1.111,0,0,0,1.267.806,6.578,6.578,0,0,0-2.5,1.761,3.509,3.509,0,0,0,.948,4.837,3.794,3.794,0,0,0,4.918-1,1.775,1.775,0,0,0,.948,2.087c3.672,1.985,5.542-.711,6.043-3.834C737.492,410.653,738.223,408.106,734.518,406.276Z" transform="translate(-397.652 -166.382)" fill="#ffe9b3"/>
  <path id="Path_53" data-name="Path 53" d="M734.518,406.276a5.419,5.419,0,0,0-3.536-.63,2.757,2.757,0,0,0-2.242,2.527l-1.951-.115a2.223,2.223,0,0,0-.677.034,1.125,1.125,0,0,0-.766,1.294,1.111,1.111,0,0,0,1.267.806,6.578,6.578,0,0,0-2.5,1.761,3.509,3.509,0,0,0,.948,4.837,3.794,3.794,0,0,0,4.918-1,1.775,1.775,0,0,0,.948,2.087c3.672,1.985,5.542-.711,6.043-3.834C737.492,410.653,738.223,408.106,734.518,406.276Z" transform="translate(-397.652 -166.382)" opacity="0.15"/>
  <path id="Path_54" data-name="Path 54" d="M756.518,402.276a5.42,5.42,0,0,0-3.536-.63,2.757,2.757,0,0,0-2.242,2.527l-1.951-.115a2.224,2.224,0,0,0-.677.034,1.125,1.125,0,0,0-.766,1.294,1.111,1.111,0,0,0,1.267.806,6.579,6.579,0,0,0-2.5,1.761,3.509,3.509,0,0,0,.948,4.837,3.794,3.794,0,0,0,4.918-1,1.775,1.775,0,0,0,.948,2.087c3.672,1.985,5.542-.711,6.043-3.834C759.492,406.653,760.223,404.106,756.518,402.276Z" transform="translate(-404.748 -165.092)" fill="#ffe9b3"/>
  <path id="Path_55" data-name="Path 55" d="M756.518,402.276a5.42,5.42,0,0,0-3.536-.63,2.757,2.757,0,0,0-2.242,2.527l-1.951-.115a2.224,2.224,0,0,0-.677.034,1.125,1.125,0,0,0-.766,1.294,1.111,1.111,0,0,0,1.267.806,6.579,6.579,0,0,0-2.5,1.761,3.509,3.509,0,0,0,.948,4.837,3.794,3.794,0,0,0,4.918-1,1.775,1.775,0,0,0,.948,2.087c3.672,1.985,5.542-.711,6.043-3.834C759.492,406.653,760.223,404.106,756.518,402.276Z" transform="translate(-404.748 -165.092)" opacity="0.15"/>
  <path id="Path_56" data-name="Path 56" d="M764.518,408.276a5.419,5.419,0,0,0-3.536-.63,2.757,2.757,0,0,0-2.242,2.527l-1.951-.115a2.223,2.223,0,0,0-.677.034,1.125,1.125,0,0,0-.766,1.294,1.111,1.111,0,0,0,1.267.806,6.578,6.578,0,0,0-2.5,1.761,3.509,3.509,0,0,0,.949,4.837,3.794,3.794,0,0,0,4.918-1,1.775,1.775,0,0,0,.948,2.087c3.672,1.985,5.542-.711,6.043-3.834C767.492,412.653,768.223,410.106,764.518,408.276Z" transform="translate(-407.328 -167.027)" fill="#ffe9b3"/>
  <path id="Path_57" data-name="Path 57" d="M764.518,408.276a5.419,5.419,0,0,0-3.536-.63,2.757,2.757,0,0,0-2.242,2.527l-1.951-.115a2.223,2.223,0,0,0-.677.034,1.125,1.125,0,0,0-.766,1.294,1.111,1.111,0,0,0,1.267.806,6.578,6.578,0,0,0-2.5,1.761,3.509,3.509,0,0,0,.949,4.837,3.794,3.794,0,0,0,4.918-1,1.775,1.775,0,0,0,.948,2.087c3.672,1.985,5.542-.711,6.043-3.834C767.492,412.653,768.223,410.106,764.518,408.276Z" transform="translate(-407.328 -167.027)" opacity="0.15"/>
  <path id="Path_58" data-name="Path 58" d="M715.518,429.276a5.42,5.42,0,0,0-3.536-.63,2.757,2.757,0,0,0-2.242,2.527l-1.951-.115a2.222,2.222,0,0,0-.677.034,1.125,1.125,0,0,0-.766,1.294,1.111,1.111,0,0,0,1.267.806,6.579,6.579,0,0,0-2.5,1.761,3.509,3.509,0,0,0,.948,4.837,3.794,3.794,0,0,0,4.918-1,1.775,1.775,0,0,0,.948,2.086c3.672,1.985,5.542-.711,6.043-3.834C718.492,433.653,719.223,431.106,715.518,429.276Z" transform="translate(-391.524 -173.8)" fill="#ffe9b3"/>
  <path id="Path_59" data-name="Path 59" d="M715.518,429.276a5.42,5.42,0,0,0-3.536-.63,2.757,2.757,0,0,0-2.242,2.527l-1.951-.115a2.222,2.222,0,0,0-.677.034,1.125,1.125,0,0,0-.766,1.294,1.111,1.111,0,0,0,1.267.806,6.579,6.579,0,0,0-2.5,1.761,3.509,3.509,0,0,0,.948,4.837,3.794,3.794,0,0,0,4.918-1,1.775,1.775,0,0,0,.948,2.086c3.672,1.985,5.542-.711,6.043-3.834C718.492,433.653,719.223,431.106,715.518,429.276Z" transform="translate(-391.524 -173.8)" opacity="0.15"/>
  <path id="Path_60" data-name="Path 60" d="M773.518,415.276a5.42,5.42,0,0,0-3.536-.63,2.757,2.757,0,0,0-2.242,2.527l-1.951-.115a2.222,2.222,0,0,0-.677.034,1.125,1.125,0,0,0-.766,1.294,1.111,1.111,0,0,0,1.267.806,6.578,6.578,0,0,0-2.5,1.761,3.509,3.509,0,0,0,.948,4.837,3.794,3.794,0,0,0,4.918-1,1.775,1.775,0,0,0,.948,2.087c3.672,1.985,5.542-.711,6.043-3.834C776.492,419.653,777.223,417.106,773.518,415.276Z" transform="translate(-410.231 -169.285)" fill="#ffe9b3"/>
  <path id="Path_61" data-name="Path 61" d="M773.518,415.276a5.42,5.42,0,0,0-3.536-.63,2.757,2.757,0,0,0-2.242,2.527l-1.951-.115a2.222,2.222,0,0,0-.677.034,1.125,1.125,0,0,0-.766,1.294,1.111,1.111,0,0,0,1.267.806,6.578,6.578,0,0,0-2.5,1.761,3.509,3.509,0,0,0,.948,4.837,3.794,3.794,0,0,0,4.918-1,1.775,1.775,0,0,0,.948,2.087c3.672,1.985,5.542-.711,6.043-3.834C776.492,419.653,777.223,417.106,773.518,415.276Z" transform="translate(-410.231 -169.285)" opacity="0.15"/>
  <path id="Path_62" data-name="Path 62" d="M792.518,425.276a5.419,5.419,0,0,0-3.536-.63,2.757,2.757,0,0,0-2.242,2.527l-1.951-.115a2.222,2.222,0,0,0-.677.034,1.125,1.125,0,0,0-.766,1.294,1.111,1.111,0,0,0,1.267.806,6.579,6.579,0,0,0-2.5,1.761,3.509,3.509,0,0,0,.948,4.837,3.794,3.794,0,0,0,4.918-1,1.775,1.775,0,0,0,.948,2.087c3.672,1.985,5.542-.711,6.043-3.834C795.492,429.653,796.223,427.106,792.518,425.276Z" transform="translate(-416.359 -172.51)" fill="#ffe9b3"/>
  <path id="Path_63" data-name="Path 63" d="M792.518,425.276a5.419,5.419,0,0,0-3.536-.63,2.757,2.757,0,0,0-2.242,2.527l-1.951-.115a2.222,2.222,0,0,0-.677.034,1.125,1.125,0,0,0-.766,1.294,1.111,1.111,0,0,0,1.267.806,6.579,6.579,0,0,0-2.5,1.761,3.509,3.509,0,0,0,.948,4.837,3.794,3.794,0,0,0,4.918-1,1.775,1.775,0,0,0,.948,2.087c3.672,1.985,5.542-.711,6.043-3.834C795.492,429.653,796.223,427.106,792.518,425.276Z" transform="translate(-416.359 -172.51)" opacity="0.15"/>
  <path id="Path_64" data-name="Path 64" d="M776.518,403.276a5.42,5.42,0,0,0-3.536-.63,2.757,2.757,0,0,0-2.242,2.527l-1.951-.115a2.223,2.223,0,0,0-.677.034,1.125,1.125,0,0,0-.766,1.294,1.111,1.111,0,0,0,1.267.806,6.578,6.578,0,0,0-2.5,1.761,3.509,3.509,0,0,0,.948,4.837,3.794,3.794,0,0,0,4.918-1,1.775,1.775,0,0,0,.948,2.087c3.672,1.985,5.542-.711,6.043-3.834C779.492,407.653,780.223,405.106,776.518,403.276Z" transform="translate(-411.199 -165.414)" fill="#ffe9b3"/>
  <path id="Path_65" data-name="Path 65" d="M776.518,403.276a5.42,5.42,0,0,0-3.536-.63,2.757,2.757,0,0,0-2.242,2.527l-1.951-.115a2.223,2.223,0,0,0-.677.034,1.125,1.125,0,0,0-.766,1.294,1.111,1.111,0,0,0,1.267.806,6.578,6.578,0,0,0-2.5,1.761,3.509,3.509,0,0,0,.948,4.837,3.794,3.794,0,0,0,4.918-1,1.775,1.775,0,0,0,.948,2.087c3.672,1.985,5.542-.711,6.043-3.834C779.492,407.653,780.223,405.106,776.518,403.276Z" transform="translate(-411.199 -165.414)" opacity="0.15"/>
  <path id="Path_66" data-name="Path 66" d="M789.918,422.418a5.42,5.42,0,0,0,.677-3.53,2.757,2.757,0,0,0-2.507-2.27l.142-1.951a2.235,2.235,0,0,0,0-.677,1.077,1.077,0,1,0-2.1.481,6.591,6.591,0,0,0-1.734-2.52,3.509,3.509,0,0,0-4.85.894,3.794,3.794,0,0,0,.948,4.932,1.782,1.782,0,0,0-2.1.928c-2.032,3.651.677,5.548,3.767,6.1C785.515,425.337,788.062,426.1,789.918,422.418Z" transform="translate(-415.122 -168.242)" fill="#ffe9b3"/>
  <path id="Path_67" data-name="Path 67" d="M789.918,406.418a5.42,5.42,0,0,0,.677-3.53,2.757,2.757,0,0,0-2.507-2.269l.142-1.951a2.235,2.235,0,0,0,0-.677,1.077,1.077,0,1,0-2.1.481,6.591,6.591,0,0,0-1.734-2.52,3.509,3.509,0,0,0-4.85.894,3.794,3.794,0,0,0,.948,4.932,1.782,1.782,0,0,0-2.1.928c-2.032,3.651.677,5.548,3.767,6.1C785.515,409.337,788.062,410.1,789.918,406.418Z" transform="translate(-415.122 -163.082)" fill="#ffe9b3"/>
  <path id="Path_68" data-name="Path 68" d="M772.918,427.418a5.42,5.42,0,0,0,.677-3.53,2.757,2.757,0,0,0-2.507-2.269l.142-1.951a2.239,2.239,0,0,0,0-.677,1.077,1.077,0,1,0-2.1.481,6.592,6.592,0,0,0-1.734-2.52,3.509,3.509,0,0,0-4.851.894,3.794,3.794,0,0,0,.948,4.932,1.782,1.782,0,0,0-2.1.928c-2.032,3.651.677,5.548,3.767,6.1C768.515,430.337,771.062,431.1,772.918,427.418Z" transform="translate(-409.638 -169.855)" fill="#ffe9b3"/>
  <path id="Path_69" data-name="Path 69" d="M791.918,445.418a5.42,5.42,0,0,0,.677-3.53,2.757,2.757,0,0,0-2.507-2.27l.142-1.951a2.235,2.235,0,0,0,0-.677,1.077,1.077,0,0,0-2.1.481,6.592,6.592,0,0,0-1.734-2.52,3.509,3.509,0,0,0-4.851.894,3.794,3.794,0,0,0,.948,4.932,1.782,1.782,0,0,0-2.1.928c-2.032,3.651.677,5.548,3.767,6.1C787.515,448.337,790.062,449.1,791.918,445.418Z" transform="translate(-415.767 -175.661)" fill="#ffe9b3"/>
  <path id="Path_70" data-name="Path 70" d="M755.918,452.418a5.42,5.42,0,0,0,.677-3.53,2.757,2.757,0,0,0-2.507-2.27l.142-1.951a2.235,2.235,0,0,0,0-.677,1.077,1.077,0,0,0-2.1.481,6.59,6.59,0,0,0-1.734-2.52,3.509,3.509,0,0,0-4.851.894,3.794,3.794,0,0,0,.948,4.932,1.782,1.782,0,0,0-2.1.928c-2.032,3.651.677,5.548,3.767,6.1C751.515,455.337,754.062,456.1,755.918,452.418Z" transform="translate(-404.155 -177.918)" fill="#ffe9b3"/>
  <path id="Path_71" data-name="Path 71" d="M747.918,411.418a5.42,5.42,0,0,0,.677-3.53,2.757,2.757,0,0,0-2.507-2.269l.142-1.951a2.235,2.235,0,0,0,0-.677,1.077,1.077,0,1,0-2.1.481,6.592,6.592,0,0,0-1.734-2.52,3.509,3.509,0,0,0-4.851.894,3.794,3.794,0,0,0,.948,4.932,1.782,1.782,0,0,0-2.1.928c-2.032,3.651.677,5.548,3.767,6.1C743.515,414.337,746.062,415.1,747.918,411.418Z" transform="translate(-401.575 -164.694)" fill="#ffe9b3"/>
  <path id="Path_72" data-name="Path 72" d="M768.918,406.418a5.42,5.42,0,0,0,.677-3.53,2.757,2.757,0,0,0-2.507-2.269l.142-1.951a2.235,2.235,0,0,0,0-.677,1.077,1.077,0,0,0-2.1.481,6.591,6.591,0,0,0-1.734-2.52,3.509,3.509,0,0,0-4.851.894,3.794,3.794,0,0,0,.949,4.932,1.782,1.782,0,0,0-2.1.928c-2.032,3.651.677,5.548,3.767,6.1C764.515,409.337,767.062,410.1,768.918,406.418Z" transform="translate(-408.348 -163.082)" fill="#ffe9b3"/>
  <path id="Path_73" data-name="Path 73" d="M726.918,425.418a5.42,5.42,0,0,0,.677-3.53,2.757,2.757,0,0,0-2.507-2.269l.142-1.951a2.237,2.237,0,0,0,0-.677,1.077,1.077,0,1,0-2.1.481,6.592,6.592,0,0,0-1.734-2.52,3.509,3.509,0,0,0-4.851.894,3.794,3.794,0,0,0,.948,4.932,1.782,1.782,0,0,0-2.1.928c-2.032,3.651.677,5.548,3.767,6.1C722.515,428.337,725.062,429.1,726.918,425.418Z" transform="translate(-394.801 -169.21)" fill="#ffe9b3"/>
  <path id="Path_74" data-name="Path 74" d="M701.3,475.8c3.523-.285,7-1.186,10.534-1.138,4.627.061,9.078,1.734,13.292,3.645a10.48,10.48,0,0,1,3.347,2.087,7.066,7.066,0,0,1,1.612,5.907,15.3,15.3,0,0,1-2.425,5.813c-1.233,1.958-2.757,3.889-4.9,4.742a11.774,11.774,0,0,1-3.733.644,41.977,41.977,0,0,1-15.744-1.7c-2.581-.881-5.027-2.114-7.554-3.157-8.055-3.333-16.767-4.647-25.323-6.327a2.6,2.6,0,0,1-1.206-.467c-1.782-1.538,2.087-7.079,2.994-8.631,1.531-2.635,2.92-2.92,6.023-2.994C685.966,474.028,693.534,476.284,701.3,475.8Z" transform="translate(-379.979 -188.52)" fill="#a0616a"/>
  <path id="Path_75" data-name="Path 75" d="M793.854,501.009c-2.452-1.206-4.654-2.872-7.086-4.126a23.888,23.888,0,0,0-9.871-2.622c-2.229-.1-4.654.2-6.273,1.734-2.31,2.195-2.032,5.928-1.274,9.024,1.152,4.641,3.469,9.552,7.919,11.307a18.014,18.014,0,0,0,5.42.928c8.245.569,16.828,1.084,24.47-2.032a2.48,2.48,0,0,0,1.355-1.037,2.561,2.561,0,0,0-.339-2.175c-1.219-2.452-3.15-7.594-5.508-9.125C800.473,501.415,796.591,502.35,793.854,501.009Z" transform="translate(-412.255 -194.981)" fill="#a0616a"/>
  <path id="Path_76" data-name="Path 76" d="M820.066,448.889a115.227,115.227,0,0,1,11.07,22.783,18.836,18.836,0,0,1,1.355,6.158,19.3,19.3,0,0,1-1.68,6.849,183.6,183.6,0,0,1-9.525,20.757c-1.084,2.032-2.324,4.153-4.471,5.271-2.256,1.179-5.034,1-7.615.677a147.107,147.107,0,0,1-19.2-3.4c3.977.129,7.567-2.852,9.4-6.1s2.242-6.958,2.547-10.582a16.062,16.062,0,0,0-.244-5.86,6.368,6.368,0,0,0-3.943-4.37c-.183-1.768,1.5-3.252,3.245-4.065s3.719-1.267,5.135-2.486c2.087-1.789,2.385-4.776,1.7-7.31s-2.175-4.823-3.232-7.256c-1.484-3.387,6.172-6.951,6.477-10.609.068-.827-.515.677,0,0s3.712,1.673,4.437,1.355C820.289,448.645,817.43,444.7,820.066,448.889Z" transform="translate(-419.092 -179.756)" opacity="0.1"/>
  <path id="Path_77" data-name="Path 77" d="M822.249,447.679a115.627,115.627,0,0,1,11.076,22.783,18.649,18.649,0,0,1,1.355,6.158,19.433,19.433,0,0,1-1.673,6.849,184.8,184.8,0,0,1-9.525,20.757c-1.084,2.032-2.324,4.153-4.471,5.271-2.256,1.179-5.04,1-7.615.677a146.7,146.7,0,0,1-19.206-3.4c3.97.129,7.567-2.852,9.4-6.1s2.249-6.958,2.554-10.582a16.21,16.21,0,0,0-.244-5.86,6.4,6.4,0,0,0-3.943-4.37c-.19-1.768,1.5-3.252,3.245-4.065s3.719-1.267,5.135-2.486c2.08-1.789,2.378-4.776,1.694-7.31s-2.175-4.823-3.232-7.256a22.5,22.5,0,0,1-1.8-10.785,4.552,4.552,0,0,1,.718-2.378,4.647,4.647,0,0,1,1.89-1.355C812.385,442.2,819.614,443.492,822.249,447.679Z" transform="translate(-419.798 -178.545)" fill="#f98a8d"/>
  <path id="Path_78" data-name="Path 78" d="M616.349,438.517c-4.4,4.065-8.936,8.36-11.076,13.962a39.65,39.65,0,0,0-1.931,9.6c-.637,5.542-1.213,11.476,1.355,16.422,2.845,5.42,8.807,8.326,14.4,10.785a39.97,39.97,0,0,0,6,2.249,42.119,42.119,0,0,0,8.2,1l28.243,1.572a19.414,19.414,0,0,1-5.542-14.735c.454-4.654,2.71-8.922,4.979-12.994,1.179-2.1,2.513-4.309,4.688-5.345a91.139,91.139,0,0,0-28.047-1.761,1.975,1.975,0,0,1-1.768-.427,1.693,1.693,0,0,1-.271-1.064c0-4.207,3.143-7.7,4.444-11.7,2.08-6.409-5-2.893-11.368-5.094S617.65,431.9,616.349,438.517Z" transform="translate(-358.712 -176.104)" opacity="0.1"/>
  <path id="Path_79" data-name="Path 79" d="M613.349,435.352c-4.4,4.065-8.936,8.36-11.076,13.962a39.647,39.647,0,0,0-1.931,9.6c-.637,5.542-1.213,11.476,1.355,16.422,2.845,5.42,8.807,8.326,14.4,10.785a39.974,39.974,0,0,0,6,2.249,42.119,42.119,0,0,0,8.2,1l28.243,1.572a19.414,19.414,0,0,1-5.542-14.735c.454-4.654,2.71-8.922,4.979-12.994,1.179-2.1,2.513-4.309,4.688-5.345a91.137,91.137,0,0,0-28.047-1.761,1.975,1.975,0,0,1-1.768-.427,1.693,1.693,0,0,1-.271-1.064c0-4.207,3.143-7.7,4.444-11.7,2.08-6.409-1.538-14.227-7.913-16.442S614.65,428.74,613.349,435.352Z" transform="translate(-357.744 -172.939)" fill="#f98a8d"/>
  <ellipse id="Ellipse_22" data-name="Ellipse 22" cx="34" cy="14.5" rx="34" ry="14.5" transform="translate(292.5 161.031)" fill="#2f2e41"/>
  <path id="Path_80" data-name="Path 80" d="M707.212,318.178c-16.374,0-30.059-4.79-33.419-11.178a6.51,6.51,0,0,0-.793,3.049c0,7.859,15.317,14.227,34.212,14.227s34.212-6.368,34.212-14.227a6.51,6.51,0,0,0-.793-3.049C737.27,313.388,723.586,318.178,707.212,318.178Z" transform="translate(-381.354 -134.587)" opacity="0.1"/>
  <path id="Path_81" data-name="Path 81" d="M786.518,325.276a5.42,5.42,0,0,0-3.536-.63,2.757,2.757,0,0,0-2.242,2.527l-1.951-.115a2.224,2.224,0,0,0-.677.034,1.125,1.125,0,0,0-.766,1.294,1.111,1.111,0,0,0,1.267.806,6.578,6.578,0,0,0-2.5,1.761,3.509,3.509,0,0,0,.948,4.837,3.794,3.794,0,0,0,4.918-1,1.775,1.775,0,0,0,.948,2.087c3.672,1.985,5.542-.711,6.043-3.834C789.492,329.653,790.223,327.106,786.518,325.276Z" transform="translate(-414.424 -140.256)" fill="#ffe9b3"/>
  <path id="Path_82" data-name="Path 82" d="M786.518,325.276a5.42,5.42,0,0,0-3.536-.63,2.757,2.757,0,0,0-2.242,2.527l-1.951-.115a2.224,2.224,0,0,0-.677.034,1.125,1.125,0,0,0-.766,1.294,1.111,1.111,0,0,0,1.267.806,6.578,6.578,0,0,0-2.5,1.761,3.509,3.509,0,0,0,.948,4.837,3.794,3.794,0,0,0,4.918-1,1.775,1.775,0,0,0,.948,2.087c3.672,1.985,5.542-.711,6.043-3.834C789.492,329.653,790.223,327.106,786.518,325.276Z" transform="translate(-414.424 -140.256)" opacity="0.15"/>
  <path id="Path_83" data-name="Path 83" d="M834.518,401.276a5.42,5.42,0,0,0-3.536-.63,2.757,2.757,0,0,0-2.242,2.527l-1.951-.115a2.222,2.222,0,0,0-.677.034,1.125,1.125,0,0,0-.766,1.294,1.111,1.111,0,0,0,1.267.806,6.579,6.579,0,0,0-2.5,1.761,3.509,3.509,0,0,0,.948,4.837,3.794,3.794,0,0,0,4.918-1,1.775,1.775,0,0,0,.948,2.087c3.672,1.985,5.542-.711,6.043-3.834C837.492,405.653,838.223,403.106,834.518,401.276Z" transform="translate(-429.906 -164.769)" fill="#ffe9b3"/>
  <path id="Path_84" data-name="Path 84" d="M834.518,401.276a5.42,5.42,0,0,0-3.536-.63,2.757,2.757,0,0,0-2.242,2.527l-1.951-.115a2.222,2.222,0,0,0-.677.034,1.125,1.125,0,0,0-.766,1.294,1.111,1.111,0,0,0,1.267.806,6.579,6.579,0,0,0-2.5,1.761,3.509,3.509,0,0,0,.948,4.837,3.794,3.794,0,0,0,4.918-1,1.775,1.775,0,0,0,.948,2.087c3.672,1.985,5.542-.711,6.043-3.834C837.492,405.653,838.223,403.106,834.518,401.276Z" transform="translate(-429.906 -164.769)" opacity="0.15"/>
  <path id="Path_85" data-name="Path 85" d="M890.518,482.276a5.42,5.42,0,0,0-3.536-.63,2.757,2.757,0,0,0-2.242,2.527l-1.951-.115a2.223,2.223,0,0,0-.677.034,1.125,1.125,0,0,0-.766,1.294,1.111,1.111,0,0,0,1.267.806,6.578,6.578,0,0,0-2.5,1.761,3.509,3.509,0,0,0,.948,4.837,3.794,3.794,0,0,0,4.918-1,1.775,1.775,0,0,0,.948,2.087c3.672,1.985,5.542-.711,6.043-3.834C893.492,486.653,894.223,484.106,890.518,482.276Z" transform="translate(-447.968 -190.895)" fill="#ffe9b3"/>
  <path id="Path_86" data-name="Path 86" d="M890.518,482.276a5.42,5.42,0,0,0-3.536-.63,2.757,2.757,0,0,0-2.242,2.527l-1.951-.115a2.223,2.223,0,0,0-.677.034,1.125,1.125,0,0,0-.766,1.294,1.111,1.111,0,0,0,1.267.806,6.578,6.578,0,0,0-2.5,1.761,3.509,3.509,0,0,0,.948,4.837,3.794,3.794,0,0,0,4.918-1,1.775,1.775,0,0,0,.948,2.087c3.672,1.985,5.542-.711,6.043-3.834C893.492,486.653,894.223,484.106,890.518,482.276Z" transform="translate(-447.968 -190.895)" opacity="0.15"/>
  <path id="Path_87" data-name="Path 87" d="M803.918,298.418a5.42,5.42,0,0,0,.677-3.53,2.757,2.757,0,0,0-2.507-2.27l.142-1.951a2.235,2.235,0,0,0,0-.677,1.077,1.077,0,1,0-2.1.481,6.592,6.592,0,0,0-1.734-2.52,3.509,3.509,0,0,0-4.851.894,3.794,3.794,0,0,0,.948,4.932,1.782,1.782,0,0,0-2.1.928c-2.032,3.651.677,5.548,3.767,6.1C799.515,301.337,802.062,302.1,803.918,298.418Z" transform="translate(-419.637 -128.247)" fill="#ffe9b3"/>
  <path id="Path_88" data-name="Path 88" d="M797.918,263.418a5.421,5.421,0,0,0,.677-3.53,2.757,2.757,0,0,0-2.507-2.27l.142-1.951a2.235,2.235,0,0,0,0-.677,1.077,1.077,0,0,0-2.1.481,6.592,6.592,0,0,0-1.734-2.52,3.509,3.509,0,0,0-4.851.894,3.794,3.794,0,0,0,.948,4.932,1.782,1.782,0,0,0-2.1.928c-2.032,3.652.677,5.548,3.767,6.1C793.515,266.337,796.062,267.1,797.918,263.418Z" transform="translate(-417.702 -116.958)" fill="#ffe9b3"/>
  <path id="Path_89" data-name="Path 89" d="M648.518,556.276a5.42,5.42,0,0,0-3.536-.63,2.757,2.757,0,0,0-2.242,2.527l-1.951-.115a2.223,2.223,0,0,0-.677,0,1.125,1.125,0,0,0-.766,1.294,1.111,1.111,0,0,0,1.267.806,6.577,6.577,0,0,0-2.5,1.761,3.509,3.509,0,0,0,.948,4.837,3.794,3.794,0,0,0,4.918-1,1.775,1.775,0,0,0,.948,2.087c3.672,1.985,5.542-.677,6.043-3.834C651.492,560.653,652.223,558.106,648.518,556.276Z" transform="translate(-369.913 -214.763)" fill="#ffe9b3"/>
  <path id="Path_90" data-name="Path 90" d="M648.518,556.276a5.42,5.42,0,0,0-3.536-.63,2.757,2.757,0,0,0-2.242,2.527l-1.951-.115a2.223,2.223,0,0,0-.677,0,1.125,1.125,0,0,0-.766,1.294,1.111,1.111,0,0,0,1.267.806,6.577,6.577,0,0,0-2.5,1.761,3.509,3.509,0,0,0,.948,4.837,3.794,3.794,0,0,0,4.918-1,1.775,1.775,0,0,0,.948,2.087c3.672,1.985,5.542-.677,6.043-3.834C651.492,560.653,652.223,558.106,648.518,556.276Z" transform="translate(-369.913 -214.763)" opacity="0.15"/>
  <path id="Path_91" data-name="Path 91" d="M611.918,549.418a5.42,5.42,0,0,0,.677-3.53,2.757,2.757,0,0,0-2.507-2.269l.142-1.951a2.234,2.234,0,0,0,0-.677,1.077,1.077,0,0,0-2.1.481,6.59,6.59,0,0,0-1.734-2.52,3.509,3.509,0,0,0-4.85.894,3.794,3.794,0,0,0,.948,4.932,1.782,1.782,0,0,0-2.1.928c-2.032,3.651.677,5.548,3.767,6.1C607.515,552.337,610.062,553.1,611.918,549.418Z" transform="translate(-357.709 -209.205)" fill="#ffe9b3"/>
  <path id="Path_92" data-name="Path 92" d="M659.918,494.418a5.42,5.42,0,0,0,.677-3.53,2.757,2.757,0,0,0-2.507-2.27l.142-1.951a2.235,2.235,0,0,0,0-.677,1.077,1.077,0,0,0-2.1.481,6.591,6.591,0,0,0-1.734-2.52,3.509,3.509,0,0,0-4.851.894,3.794,3.794,0,0,0,.948,4.932,1.782,1.782,0,0,0-2.1.928c-2.032,3.651.677,5.548,3.767,6.1C655.515,497.337,658.062,498.1,659.918,494.418Z" transform="translate(-373.191 -191.465)" fill="#ffe9b3"/>
  <path id="Path_93" data-name="Path 93" d="M491.569,509.92c-6.6-1.687-13.468-3.387-20.134-2.032a85.352,85.352,0,0,0-8.658,2.71,49.529,49.529,0,0,1-42.5-6.348c-6.91-4.776-14.091-11.74-22.275-9.85-2.2.515-4.241,1.667-6.49,1.917-4.221.481-8.129-2.256-12.316-2.9-7.208-1.1-13.759,3.95-19.3,8.692l-29.219,25c-2.215,1.9-4.654,4.4-4.065,7.249.9,4.18,7.3,4.742,8.949,8.705,1.192,2.839-.779,6.145-3.387,7.764s-5.765,2.032-8.692,3.015a27.031,27.031,0,0,0-17.8,19.782c-.515,2.425-.678,4.945-1.633,7.235-1.03,2.493-2.893,4.539-4.268,6.856-6.016,10.094-2.066,23.487-6.632,34.313-2.419,5.745-7.262,11.3-5.731,17.336,1.4,5.474,7.4,8.272,12.872,9.721.644,3.726-.677,6.355-3.387,9.031,22.729,9.342,47.124,18.881,71.235,14.1,8.272-1.633,16.327-4.945,24.754-4.81,5.982.095,11.9,1.938,17.865,1.517,12.594-.887,24.158-11.652,36.359-8.421-3.679.251-5.04,5.63-2.872,8.617s6.158,3.943,9.83,4.3,7.56.379,10.744,2.249c-2.412,5.02-11.049,6.775-10.216,12.3.3,1.992,1.917,3.5,3.516,4.742,16.428,12.58,39.055,11.375,59.616,13.549,15.162,1.585,30.025,5.291,45.139,7.269,24.145,3.15,48.621,1.863,72.928.562,4.41-.237,9.356-.725,12.194-4.112,3.767-4.512,1.673-11.2,1.2-17.052-1.843-22.9,23.21-38.669,30.228-60.551,2.71-8.543,2.595-17.722,2.107-26.685-1.091-20.215-4.254-41.542-17.14-57.15-10.609-12.872-26.468-20.12-42.26-25.432-10.054-3.387-20.588-6.172-31.163-5.176-17.749,1.673-35.682,13.793-52.069,6.775-4.336-1.856-8.028-4.925-12.147-7.215C515.917,511.376,503.635,513,491.569,509.92Z" transform="translate(-256.891 -194.665)" fill="#8f1ea3"/>
  <g id="Group_4" data-name="Group 4" transform="translate(30.28 316.867)" opacity="0.1">
    <path id="Path_94" data-name="Path 94" d="M583.255,724.262c-15.114-1.978-29.95-5.664-45.139-7.269-20.581-2.154-43.208-.948-59.616-13.549-1.6-1.226-3.211-2.71-3.516-4.742-.833-5.508,7.8-7.276,10.216-12.3-3.184-1.87-7.066-1.89-10.744-2.249s-7.662-1.307-9.83-4.3-.806-8.367,2.872-8.617c-12.194-3.231-23.765,7.533-36.359,8.421-5.968.42-11.883-1.423-17.865-1.518-8.428-.135-16.483,3.177-24.754,4.81-24.111,4.742-48.5-4.742-71.235-14.1,2.676-2.71,4.011-5.3,3.387-9.031-5.454-1.45-11.463-4.248-12.872-9.721-1.531-6.036,3.313-11.591,5.731-17.336,4.566-10.839.617-24.219,6.632-34.313,1.355-2.317,3.238-4.363,4.268-6.856.942-2.29,1.118-4.81,1.633-7.235a23.853,23.853,0,0,1,.881-3.13c-1.138.312-2.29.6-3.387.962a27.031,27.031,0,0,0-17.8,19.782c-.515,2.425-.677,4.945-1.633,7.235-1.03,2.493-2.893,4.539-4.268,6.856-6.016,10.094-2.066,23.487-6.632,34.313-2.419,5.745-7.262,11.3-5.731,17.336,1.4,5.474,7.4,8.272,12.872,9.721.644,3.726-.677,6.355-3.387,9.031,22.735,9.342,47.124,18.881,71.235,14.1,8.272-1.633,16.327-4.945,24.754-4.81,5.982.095,11.9,1.938,17.865,1.518,12.594-.887,24.158-11.652,36.359-8.421-3.679.251-5.04,5.63-2.872,8.617s6.158,3.943,9.83,4.3,7.56.379,10.744,2.249c-2.412,5.02-11.049,6.775-10.216,12.3.3,1.992,1.917,3.5,3.516,4.742,16.428,12.58,39.055,11.375,59.616,13.549,15.161,1.585,30.025,5.291,45.139,7.269,24.145,3.15,48.621,1.863,72.928.562,4.41-.237,9.356-.725,12.194-4.112,2.947-3.536,2.3-8.4,1.66-13.163C627.534,726.314,605.252,727.134,583.255,724.262Z" transform="translate(-287.197 -539.905)"/>
    <path id="Path_95" data-name="Path 95" d="M353.338,550.248a26.13,26.13,0,0,1,9.234-5.311c2.927-.948,6.1-1.4,8.692-3.015s4.586-4.925,3.387-7.764c-1.646-3.936-8.048-4.525-8.949-8.705-.413-1.924.569-3.692,1.938-5.223l-18.217,15.582c-2.215,1.9-4.654,4.4-4.065,7.249C346.15,546.637,350.933,547.592,353.338,550.248Z" transform="translate(-305.927 -520.23)"/>
  </g>
  <path id="Path_96" data-name="Path 96" d="M441.9,539.418a5.419,5.419,0,0,0,.677-3.53,2.757,2.757,0,0,0-2.507-2.27l.142-1.951a2.237,2.237,0,0,0-.034-.677,1.077,1.077,0,0,0-2.1.481,6.593,6.593,0,0,0-1.734-2.52,3.509,3.509,0,0,0-4.851.894,3.794,3.794,0,0,0,.948,4.932,1.782,1.782,0,0,0-2.1.928c-2.032,3.651.677,5.548,3.767,6.1C437.5,542.338,440.046,543.1,441.9,539.418Z" transform="translate(-302.861 -205.98)" fill="#ffe9b3"/>
  <path id="Path_97" data-name="Path 97" d="M587.918,733.418a5.42,5.42,0,0,0,.677-3.53,2.757,2.757,0,0,0-2.507-2.269l.142-1.951a2.235,2.235,0,0,0,0-.677,1.077,1.077,0,0,0-2.1.481,6.591,6.591,0,0,0-1.734-2.52,3.509,3.509,0,0,0-4.851.894,3.794,3.794,0,0,0,.948,4.932,1.782,1.782,0,0,0-2.1.928c-2.032,3.651.677,5.548,3.767,6.1C583.515,736.337,586.062,737.1,587.918,733.418Z" transform="translate(-349.968 -268.553)" fill="#ffe9b3"/>
  <path id="Path_98" data-name="Path 98" d="M687.918,542.418a5.42,5.42,0,0,0,.677-3.53,2.757,2.757,0,0,0-2.507-2.269l.142-1.951a2.234,2.234,0,0,0,0-.677,1.077,1.077,0,1,0-2.1.481,6.592,6.592,0,0,0-1.734-2.52,3.509,3.509,0,0,0-4.851.894,3.794,3.794,0,0,0,.948,4.932,1.782,1.782,0,0,0-2.1.928c-2.032,3.651.677,5.548,3.767,6.1C683.515,545.337,686.062,546.1,687.918,542.418Z" transform="translate(-382.222 -206.947)" fill="#ffe9b3"/>
  <path id="Path_99" data-name="Path 99" d="M707.956,538.79a5.42,5.42,0,0,0,2.615-2.459,2.75,2.75,0,0,0-.677-3.306l1.253-1.5a2.209,2.209,0,0,0,.393-.583,1.079,1.079,0,1,0-1.985-.847,6.578,6.578,0,0,0,.075-3.055,3.509,3.509,0,0,0-4.458-2.12,3.787,3.787,0,0,0-2.12,4.546,1.788,1.788,0,0,0-2.242-.488c-3.78,1.768-2.71,4.871-.515,7.134C702.665,538.58,704.277,540.687,707.956,538.79Z" transform="translate(-389.516 -204.811)" fill="#ffe9b3"/>
  <path id="Path_100" data-name="Path 100" d="M490.518,550.276a5.419,5.419,0,0,0-3.536-.63,2.757,2.757,0,0,0-2.242,2.527l-1.951-.115a2.219,2.219,0,0,0-.677,0,1.125,1.125,0,0,0-.766,1.294,1.111,1.111,0,0,0,1.267.806,6.578,6.578,0,0,0-2.5,1.761,3.509,3.509,0,0,0,.948,4.837,3.794,3.794,0,0,0,4.918-1,1.775,1.775,0,0,0,.948,2.087c3.672,1.985,5.542-.677,6.043-3.834C493.492,554.653,494.223,552.106,490.518,550.276Z" transform="translate(-318.952 -212.828)" fill="#ffe9b3"/>
  <path id="Path_101" data-name="Path 101" d="M490.518,550.276a5.419,5.419,0,0,0-3.536-.63,2.757,2.757,0,0,0-2.242,2.527l-1.951-.115a2.219,2.219,0,0,0-.677,0,1.125,1.125,0,0,0-.766,1.294,1.111,1.111,0,0,0,1.267.806,6.578,6.578,0,0,0-2.5,1.761,3.509,3.509,0,0,0,.948,4.837,3.794,3.794,0,0,0,4.918-1,1.775,1.775,0,0,0,.948,2.087c3.672,1.985,5.542-.677,6.043-3.834C493.492,554.653,494.223,552.106,490.518,550.276Z" transform="translate(-318.952 -212.828)" opacity="0.15"/>
  <path id="Path_102" data-name="Path 102" d="M578.532,621.157a5.494,5.494,0,0,0-.583-3.543,2.75,2.75,0,0,0-3.137-1.267l-.542-1.883a2.283,2.283,0,0,0-.271-.677,1.08,1.08,0,0,0-1.809,1.179,6.544,6.544,0,0,0-2.493-1.775,3.516,3.516,0,0,0-4.248,2.513,3.794,3.794,0,0,0,2.588,4.3,1.782,1.782,0,0,0-1.653,1.592c-.678,4.126,2.52,4.986,5.63,4.417C575.4,625.4,578.044,625.222,578.532,621.157Z" transform="translate(-346.645 -233.313)" fill="#ffe9b3"/>
  <path id="Path_103" data-name="Path 103" d="M578.532,621.157a5.494,5.494,0,0,0-.583-3.543,2.75,2.75,0,0,0-3.137-1.267l-.542-1.883a2.283,2.283,0,0,0-.271-.677,1.08,1.08,0,0,0-1.809,1.179,6.544,6.544,0,0,0-2.493-1.775,3.516,3.516,0,0,0-4.248,2.513,3.794,3.794,0,0,0,2.588,4.3,1.782,1.782,0,0,0-1.653,1.592c-.678,4.126,2.52,4.986,5.63,4.417C575.4,625.4,578.044,625.222,578.532,621.157Z" transform="translate(-346.645 -233.313)" opacity="0.15"/>
  <path id="Path_104" data-name="Path 104" d="M698.532,530.157a5.494,5.494,0,0,0-.583-3.543,2.75,2.75,0,0,0-3.137-1.267l-.542-1.883a2.282,2.282,0,0,0-.271-.677,1.079,1.079,0,1,0-1.809,1.179,6.543,6.543,0,0,0-2.493-1.775,3.516,3.516,0,0,0-4.248,2.513,3.794,3.794,0,0,0,2.588,4.3,1.782,1.782,0,0,0-1.653,1.592c-.677,4.126,2.52,4.986,5.63,4.417C695.4,534.4,698.044,534.222,698.532,530.157Z" transform="translate(-385.35 -203.961)" fill="#ffe9b3"/>
  <path id="Path_105" data-name="Path 105" d="M698.532,530.157a5.494,5.494,0,0,0-.583-3.543,2.75,2.75,0,0,0-3.137-1.267l-.542-1.883a2.282,2.282,0,0,0-.271-.677,1.079,1.079,0,1,0-1.809,1.179,6.543,6.543,0,0,0-2.493-1.775,3.516,3.516,0,0,0-4.248,2.513,3.794,3.794,0,0,0,2.588,4.3,1.782,1.782,0,0,0-1.653,1.592c-.677,4.126,2.52,4.986,5.63,4.417C695.4,534.4,698.044,534.222,698.532,530.157Z" transform="translate(-385.35 -203.961)" opacity="0.15"/>
</svg>
