<svg xmlns="http://www.w3.org/2000/svg" xmlns:xlink="http://www.w3.org/1999/xlink" width="248" height="123.71" viewBox="0 0 248 123.71">
  <defs>
    <clipPath id="clip-path">
      <path id="Path_110" data-name="Path 110" d="M620.929,272.2l-1.936-4.716-25.818,10.6a3.189,3.189,0,0,0-1.976,2.949v27.894h5.1V282.324Z" transform="translate(-591.198 -267.488)" fill="none"/>
    </clipPath>
  </defs>
  <g id="Group_11" data-name="Group 11" transform="translate(-1167 -2658.83)">
    <g id="Group_6" data-name="Group 6" transform="translate(455 850.83)">
      <g id="undraw_movie_night_fldd" transform="translate(712 1808)">
        <path id="Path_106" data-name="Path 106" d="M4.959,192.036H86.528a4,4,0,0,1,4,4v6.36H.955v-6.36a4,4,0,0,1,4-4Z" transform="translate(-0.682 -156.422)" fill="#3f3d56"/>
        <path id="Path_107" data-name="Path 107" d="M258.751,357.938a3.674,3.674,0,0,0-1.184.2,2.217,2.217,0,0,0-4.368.539c0,.011,0,.021,0,.032a3.806,3.806,0,0,0-.817.169,2.229,2.229,0,0,0-1.1-1.415,3.714,3.714,0,0,0,1.6-1.754,2.976,2.976,0,1,0-.061-5.917,3.673,3.673,0,0,0-1.184.2,2.214,2.214,0,1,0-4.256,1.2c-.089.062-.171.131-.254.2a2.1,2.1,0,0,0-1.514-.5,3.687,3.687,0,0,0-7.168,1.148,3.789,3.789,0,0,0-.874.174,2.221,2.221,0,0,0-.128-.365,2.782,2.782,0,0,0,.941-2.057,3.163,3.163,0,0,0-3.331-2.961,3.672,3.672,0,0,0-1.184.2,2.214,2.214,0,1,0-4.256,1.2,3.692,3.692,0,0,0-1.582,2.864c-.031.028-.067.05-.1.08a2.637,2.637,0,0,0,.086-.647,3.163,3.163,0,0,0-3.331-2.961,3.672,3.672,0,0,0-1.184.2,2.214,2.214,0,1,0-4.256,1.2,3.692,3.692,0,0,0,0,6.074,2.019,2.019,0,0,0,0,1.329,3.738,3.738,0,0,0-.947.956,2.207,2.207,0,0,0-4.325.374,3.528,3.528,0,0,0-.952-.385,3.721,3.721,0,0,0,1.36-1.615,2.976,2.976,0,1,0-.061-5.917,3.674,3.674,0,0,0-1.184.2,2.214,2.214,0,1,0-4.256,1.2c-.047.033-.09.072-.136.107-.115-.011-.228-.031-.346-.031a3.672,3.672,0,0,0-1.184.2c-.014-.056-.037-.108-.055-.162a2.182,2.182,0,0,0-2.267-2.641,3.7,3.7,0,1,0-5.812,4.12,3.833,3.833,0,0,0-.75.163,2.2,2.2,0,0,0-3.525-1.191,3.461,3.461,0,0,0-2.694-1.232,3.673,3.673,0,0,0-1.184.2,2.214,2.214,0,1,0-4.256,1.2,3.693,3.693,0,0,0-1.593,3.037c0,.011,0,.022,0,.033a3.071,3.071,0,0,0-1.557.168,2.214,2.214,0,1,0-4.256,1.2,3.686,3.686,0,0,0,2.914,6.64,3.688,3.688,0,0,0,6.969.947,3.689,3.689,0,0,0,6.722-.114,3.683,3.683,0,0,0,1.275-.247,3.688,3.688,0,0,0,6.869.247,3.622,3.622,0,0,0,1.553-.384,3.685,3.685,0,0,0,6.591-.356,3.734,3.734,0,0,0,.592-.062,3.7,3.7,0,0,0,6.811.062,3.685,3.685,0,0,0,.86-.127,3.609,3.609,0,0,0,4.008-1.531,3.7,3.7,0,0,0,6.976,2.4,3.622,3.622,0,0,0,1.553-.384,3.685,3.685,0,0,0,6.591-.356,3.622,3.622,0,0,0,1.553-.384,3.663,3.663,0,0,0,5.488,1.064,3.686,3.686,0,0,0,6.593,1.529,3.676,3.676,0,0,0,5.614-1.468,2.976,2.976,0,1,0-.061-5.917Zm-66.167-1.528c0,.018-.007.036-.01.054-.027,0-.053-.007-.08-.007a2.195,2.195,0,0,0-.33.033c.006-.013.014-.025.02-.039A3.69,3.69,0,0,0,192.583,356.41Zm30.929-1.232c-.011-.043-.029-.083-.043-.125a3.72,3.72,0,0,0,1.287-1.563,3.466,3.466,0,0,0,2.574-1.166,2.228,2.228,0,0,0-.043.431,2.2,2.2,0,0,0,.112.664,3.715,3.715,0,0,0-1.376,1.8,3.633,3.633,0,0,0-2.511-.046Zm22.173.276c0-.045,0-.092,0-.137a2.214,2.214,0,0,0,.282-.019,3.669,3.669,0,0,0,.705,1.306c-.07.02-.143.031-.212.055a2.233,2.233,0,0,0-.777-1.2Z" transform="translate(-174.453 -323.064)" fill="#f9a825"/>
        <path id="Path_108" data-name="Path 108" d="M174.177,404.95a7.73,7.73,0,0,0-7.719,8.145l5.013,68.934a7.729,7.729,0,0,0,7.719,7.316h64.637a7.729,7.729,0,0,0,7.719-7.317l5.013-68.933a7.73,7.73,0,0,0-7.719-8.145Z" transform="translate(-166.447 -365.635)" fill="#3f3d56"/>
        <rect id="Rectangle_12" data-name="Rectangle 12" width="4.442" height="84.395" transform="translate(11.378 39.315)" fill="#8f1ea3"/>
        <rect id="Rectangle_13" data-name="Rectangle 13" width="4.442" height="84.395" transform="translate(23.963 39.315)" fill="#8f1ea3"/>
        <rect id="Rectangle_14" data-name="Rectangle 14" width="4.442" height="84.395" transform="translate(36.548 39.315)" fill="#8f1ea3"/>
        <rect id="Rectangle_15" data-name="Rectangle 15" width="4.442" height="84.395" transform="translate(49.133 39.315)" fill="#8f1ea3"/>
        <rect id="Rectangle_16" data-name="Rectangle 16" width="4.442" height="84.395" transform="translate(61.718 39.315)" fill="#8f1ea3"/>
        <rect id="Rectangle_17" data-name="Rectangle 17" width="4.442" height="84.395" transform="translate(74.304 39.315)" fill="#8f1ea3"/>
        <path id="_2572ddba-42e8-4159-9036-35cbff74dfb7" data-name="2572ddba-42e8-4159-9036-35cbff74dfb7" d="M620.929,272.2l-1.936-4.716-25.818,10.6a3.189,3.189,0,0,0-1.976,2.949v27.894h5.1V282.324Z" transform="translate(-469.716 -267.488)" fill="#3f3d56"/>
        <g id="Group_5" data-name="Group 5" transform="translate(121.482)" clip-path="url(#clip-path)">
          <rect id="Rectangle_18" data-name="Rectangle 18" width="5.56" height="17.61" transform="translate(20.853 -5.125)" fill="#8f1ea3"/>
          <rect id="Rectangle_19" data-name="Rectangle 19" width="5.56" height="17.61" transform="translate(12.05 -1.419)" fill="#8f1ea3"/>
          <path id="Path_109" data-name="Path 109" d="M442.462,71.257l-3.938,1.158L436.9,53.647h5.56Z" transform="translate(-433.427 -57.614)" fill="#8f1ea3"/>
          <rect id="Rectangle_20" data-name="Rectangle 20" width="17.61" height="5.56" transform="translate(-5.331 15.728)" fill="#8f1ea3"/>
          <rect id="Rectangle_21" data-name="Rectangle 21" width="17.61" height="5.56" transform="translate(-5.328 23.375)" fill="#8f1ea3"/>
          <rect id="Rectangle_22" data-name="Rectangle 22" width="17.61" height="5.56" transform="translate(-5.331 31.023)" fill="#8f1ea3"/>
        </g>
        <path id="Path_111" data-name="Path 111" d="M391.806,291.807H357.745l-8.343-83.42h49.82Z" transform="translate(-249.47 -168.097)" fill="#3f3d56"/>
        <rect id="Rectangle_23" data-name="Rectangle 23" width="57.002" height="5.56" transform="translate(96.457 38.9)" fill="#3f3d56"/>
        <path id="Path_115" data-name="Path 115" d="M891.89,614.78a.844.844,0,0,0-.843.842v22.7a.844.844,0,0,0,.843.842h39.073a.843.843,0,0,0,.843-.842v-22.7a.844.844,0,0,0-.843-.842Z" transform="translate(-683.806 -515.452)" fill="#3f3d56"/>
        <path id="Path_116" data-name="Path 116" d="M905.342,621.779a1.571,1.571,0,0,0-1.57,1.57v17.239a1.571,1.571,0,0,0,1.57,1.57h30.34a1.571,1.571,0,0,0,1.57-1.57V623.349a1.572,1.572,0,0,0-1.57-1.57Z" transform="translate(-692.891 -520.449)" fill="#ff6584"/>
        <rect id="Rectangle_24" data-name="Rectangle 24" width="20.353" height="4.714" transform="translate(188.171 106.805)" fill="#3f3d56"/>
        <path id="Path_117" data-name="Path 117" d="M698.437,614.78a.843.843,0,0,0-.842.842v22.7a.843.843,0,0,0,.842.842h39.073a.843.843,0,0,0,.842-.842v-22.7a.843.843,0,0,0-.842-.842Z" transform="translate(-545.682 -515.452)" fill="#3f3d56"/>
        <path id="Path_118" data-name="Path 118" d="M711.888,621.779a1.572,1.572,0,0,0-1.57,1.57v17.239a1.572,1.572,0,0,0,1.57,1.57h30.339a1.571,1.571,0,0,0,1.57-1.57V623.349a1.572,1.572,0,0,0-1.57-1.57Z" transform="translate(-554.766 -520.449)" fill="#8f1ea3"/>
      </g>
    </g>
  </g>
</svg>
